<?xml version="1.0" encoding="utf-8"?>
<!-- Generator: Adobe Illustrator 19.1.0, SVG Export Plug-In . SVG Version: 6.00 Build 0)  -->
<svg version="1.1" id="Layer_1" xmlns="http://www.w3.org/2000/svg" xmlns:xlink="http://www.w3.org/1999/xlink" x="0px" y="0px"
	 viewBox="0 0 140 140" style="enable-background:new 0 0 140 140;" xml:space="preserve">
<style type="text/css">
	.st0{display:none;}
	.st1{display:inline;}
	.st2{fill:#F15E5F;}
	.st3{fill:none;stroke:#F15E5F;stroke-width:3;stroke-miterlimit:10;}
</style>
<g id="Layer_1_1_" class="st0">
	<g class="st1">
		<path class="st2" d="M46.4,86.1c4.3,4.3,10,6.5,15.7,6.5s11.4-2.2,15.7-6.5c4.2-4.2,6.5-9.8,6.5-15.7c0-5.9-2.3-11.5-6.5-15.7
			c-8.6-8.6-22.7-8.6-31.4,0c-4.2,4.2-6.5,9.8-6.5,15.7S42.2,81.9,46.4,86.1L46.4,86.1z M49.4,57.7c7-7,18.3-7,25.3,0
			c3.4,3.4,5.2,7.9,5.2,12.6c0,4.8-1.9,9.3-5.2,12.6c-7,7-18.3,7-25.3,0c-3.4-3.4-5.2-7.9-5.2-12.6C44.2,65.6,46.1,61.1,49.4,57.7
			L49.4,57.7z"/>
		<path class="st2" d="M127.8,116.9l-19.3-19.3c4.5-7.6,7-16.1,7.3-25h9.3c1.4,0,2.7-0.6,3.6-1.5c1-1,1.4-2.3,1.4-3.7
			c-0.8-17-7.8-32.9-19.8-45c-12-12-28-19.1-45-19.8C63.9,2.5,62.6,3,61.6,4c-1,0.9-1.5,2.3-1.5,3.6v9.3C31.4,18,8.5,41.6,8.5,70.5
			c0,29.6,24.1,53.7,53.7,53.7c9.6,0,18.9-2.5,27.1-7.3l19.3,19.3c1.5,1.5,3.5,2.3,5.6,2.3c2,0,4-0.8,5.6-2.3l8.1-8.1
			c1.5-1.5,2.3-3.5,2.3-5.6C130.1,120.4,129.3,118.4,127.8,116.9L127.8,116.9z M105.4,94.4l-2.3-2.3l0,0c-1.5-1.5-3.5-2.3-5.6-2.3
			c-1.4,0-2.7,0.3-3.8,1l-3.9-3.9c2.6-4.3,4.1-9.2,4.5-14.3h17.3C111.2,80.3,109.1,87.7,105.4,94.4L105.4,94.4z M90.4,93.7l-5.1,5.1
			l-3.2-3.2c0.9-0.7,1.8-1.5,2.7-2.4c0.9-0.9,1.7-1.7,2.4-2.7L90.4,93.7z M64.3,7.6c0-0.3,0.1-0.4,0.2-0.5s0.3-0.2,0.5-0.2
			c33.1,1.5,59.2,27.6,60.7,60.7c0,0.3-0.1,0.4-0.2,0.5s-0.3,0.2-0.5,0.2H94.2c-0.5-7.8-3.8-15.1-9.4-20.7c-5.7-5.7-13-8.8-20.5-9.3
			C64.3,38.3,64.3,7.6,64.3,7.6z M62.1,42.5c7.1,0,14.3,2.7,19.7,8.2C87.1,56,90,63,90,70.4l0,0c0,0,0,0,0,0.1c0,0,0,0,0,0.1
			c0,5.5-1.7,10.8-4.7,15.3c-0.1,0.1-0.1,0.2-0.2,0.2c-1,1.4-2.1,2.8-3.3,4c-1.3,1.3-2.6,2.4-4.1,3.4l0,0
			c-4.7,3.2-10.1,4.7-15.6,4.7c-7.1,0-14.3-2.7-19.7-8.2c-5.3-5.3-8.2-12.3-8.2-19.7c0-7.5,2.9-14.5,8.2-19.7
			C47.8,45.2,54.9,42.5,62.1,42.5L62.1,42.5z M62.2,119.8c-27.2,0-49.4-22.1-49.4-49.4c0-26.5,21-48.2,47.2-49.3v17.1
			c-7.5,0.5-15,3.6-20.7,9.3c-6.1,6.1-9.4,14.2-9.4,22.8s3.3,16.7,9.4,22.8C50,103.8,66.2,105.4,78.6,98l3.9,3.9
			c-0.7,1.2-1,2.5-1,3.8c0,2.1,0.8,4.1,2.3,5.6l2.3,2.3C78.8,117.7,70.6,119.8,62.2,119.8L62.2,119.8z M124.7,125l-8.1,8.1
			c-1.4,1.4-3.7,1.4-5.1,0l-20.4-20.5c0,0,0,0-0.1-0.1l-4.2-4.2c-0.7-0.7-1-1.6-1-2.5c0-1,0.4-1.9,1-2.5l8.1-8.1
			c1.4-1.4,3.7-1.4,5.1,0l4.2,4.2c0,0,0,0,0.1,0.1l20.4,20.5c0.7,0.7,1,1.6,1,2.5C125.8,123.4,125.4,124.3,124.7,125L124.7,125z"/>
	</g>
</g>
<g id="anchor">
	<g>
		<path class="st3" d="M134.2,100.9c-0.3-0.5-0.8-0.8-1.5-1l-25-5c-1-0.2-1.8,0.1-2.4,1c-0.6,0.8-0.6,1.7,0,2.6l5.7,8.5
			c-4,3.7-9.2,6.4-15.6,8.2c-6.4,1.8-13.2,2.5-20.4,2l9.1-45.9L97.7,74c1.2,0.2,2.4,0,3.5-0.7s1.7-1.7,2-2.9l1.8-9.1
			c0.2-1.2,0-2.4-0.7-3.5s-1.7-1.7-2.9-2l-13.6-2.7L90,41.6c3.1-1.1,5.7-2.8,7.9-5.3c2.2-2.4,3.6-5.3,4.3-8.6c1-5,0.1-9.7-2.8-13.9
			c-2.8-4.3-6.8-6.9-11.8-7.9s-9.7-0.1-13.9,2.8c-4.3,2.8-6.9,6.8-7.9,11.8c-0.7,3.3-0.4,6.5,0.7,9.6s2.9,5.7,5.3,7.9l-2.3,11.6
			l-13.6-2.7c-1.2-0.2-2.4,0-3.5,0.7s-1.7,1.7-2,2.9l-1.8,9.1c-0.2,1.2,0,2.4,0.7,3.5s1.7,1.7,2.9,2l13.6,2.7l-9.1,45.9
			c-6.9-2.3-12.9-5.6-18.1-9.7s-9-8.6-11.3-13.6l8.5-5.7c0.9-0.6,1.2-1.4,1-2.4S36,80.7,35,80.5l-25-5c-0.7-0.1-1.3,0-1.8,0.3
			s-0.8,0.8-1,1.5l-5,25c-0.2,1,0.1,1.8,1,2.4c0.4,0.2,0.6,0.3,0.8,0.3c0.7,0.1,1.3,0,1.8-0.3l7.9-5.3c4.3,7.9,10.8,14.8,19.4,20.6
			c8.7,5.8,18.4,9.8,29.3,12s21.4,2.2,31.7,0.1c10.2-2.1,18.8-5.9,25.8-11.6l5.3,7.9c0.4,0.5,0.9,0.8,1.5,1c0.2,0,0.5,0,0.9,0
			c1-0.2,1.6-0.8,1.8-1.8l5-25C134.7,102,134.6,101.4,134.2,100.9L134.2,100.9z M86.6,27.9c-1.1,0.7-2.2,1-3.5,0.7
			c-1.2-0.2-2.2-0.9-2.9-2c-0.7-1.1-1-2.2-0.7-3.5c0.2-1.2,0.9-2.2,2-2.9c1.1-0.7,2.2-1,3.5-0.7c1.2,0.2,2.2,0.9,2.9,2
			c0.7,1.1,1,2.2,0.7,3.5C88.3,26.2,87.7,27.2,86.6,27.9L86.6,27.9z"/>
	</g>
</g>
<g id="guides">
</g>
</svg>
